<svg width="165" height="165" viewBox="0 0 165 165" fill="none" xmlns="http://www.w3.org/2000/svg">
<mask id="mask0" mask-type="alpha" maskUnits="userSpaceOnUse" x="0" y="0" width="165" height="165">
<circle cx="82.5" cy="82.5" r="82.5" fill="#FF7E61"/>
</mask>
<g mask="url(#mask0)">
<path d="M11.8135 26.9888C13.5544 26.9888 14.9656 25.6492 14.9656 23.9967C14.9656 22.3442 13.5544 21.0046 11.8135 21.0046C10.0726 21.0046 8.66138 22.3442 8.66138 23.9967C8.66138 25.6492 10.0726 26.9888 11.8135 26.9888Z" fill="#6371DD"/>
<path d="M39.7044 26.9888C41.4452 26.9888 42.8565 25.6492 42.8565 23.9967C42.8565 22.3442 41.4452 21.0046 39.7044 21.0046C37.9635 21.0046 36.5522 22.3442 36.5522 23.9967C36.5522 25.6492 37.9635 26.9888 39.7044 26.9888Z" fill="#6371DD"/>
<path d="M67.595 26.9888C69.3359 26.9888 70.7471 25.6492 70.7471 23.9967C70.7471 22.3442 69.3359 21.0046 67.595 21.0046C65.8541 21.0046 64.4429 22.3442 64.4429 23.9967C64.4429 25.6492 65.8541 26.9888 67.595 26.9888Z" fill="#6371DD"/>
<path d="M11.8135 68.9043C13.5544 68.9043 14.9656 67.5647 14.9656 65.9123C14.9656 64.2598 13.5544 62.9202 11.8135 62.9202C10.0726 62.9202 8.66138 64.2598 8.66138 65.9123C8.66138 67.5647 10.0726 68.9043 11.8135 68.9043Z" fill="#6371DD"/>
<path d="M39.7044 68.9043C41.4452 68.9043 42.8565 67.5647 42.8565 65.9123C42.8565 64.2598 41.4452 62.9202 39.7044 62.9202C37.9635 62.9202 36.5522 64.2598 36.5522 65.9123C36.5522 67.5647 37.9635 68.9043 39.7044 68.9043Z" fill="#6371DD"/>
<path d="M67.595 68.9043C69.3359 68.9043 70.7471 67.5647 70.7471 65.9123C70.7471 64.2598 69.3359 62.9202 67.595 62.9202C65.8541 62.9202 64.4429 64.2598 64.4429 65.9123C64.4429 67.5647 65.8541 68.9043 67.595 68.9043Z" fill="#6371DD"/>
<path d="M11.8135 110.847C13.5544 110.847 14.9656 109.508 14.9656 107.855C14.9656 106.203 13.5544 104.863 11.8135 104.863C10.0726 104.863 8.66138 106.203 8.66138 107.855C8.66138 109.508 10.0726 110.847 11.8135 110.847Z" fill="#6371DD"/>
<path d="M39.7044 110.847C41.4452 110.847 42.8565 109.508 42.8565 107.855C42.8565 106.203 41.4452 104.863 39.7044 104.863C37.9635 104.863 36.5522 106.203 36.5522 107.855C36.5522 109.508 37.9635 110.847 39.7044 110.847Z" fill="#6371DD"/>
<path d="M67.595 110.847C69.3359 110.847 70.7471 109.508 70.7471 107.855C70.7471 106.203 69.3359 104.863 67.595 104.863C65.8541 104.863 64.4429 106.203 64.4429 107.855C64.4429 109.508 65.8541 110.847 67.595 110.847Z" fill="#6371DD"/>
<path d="M11.8135 152.79C13.5544 152.79 14.9656 151.45 14.9656 149.797C14.9656 148.145 13.5544 146.805 11.8135 146.805C10.0726 146.805 8.66138 148.145 8.66138 149.797C8.66138 151.45 10.0726 152.79 11.8135 152.79Z" fill="#6371DD"/>
<path d="M39.7044 152.79C41.4452 152.79 42.8565 151.45 42.8565 149.797C42.8565 148.145 41.4452 146.805 39.7044 146.805C37.9635 146.805 36.5522 148.145 36.5522 149.797C36.5522 151.45 37.9635 152.79 39.7044 152.79Z" fill="#6371DD"/>
<path d="M67.595 152.79C69.3359 152.79 70.7471 151.45 70.7471 149.797C70.7471 148.145 69.3359 146.805 67.595 146.805C65.8541 146.805 64.4429 148.145 64.4429 149.797C64.4429 151.45 65.8541 152.79 67.595 152.79Z" fill="#6371DD"/>
<path d="M94.1758 26.9888C95.9167 26.9888 97.328 25.6492 97.328 23.9967C97.328 22.3442 95.9167 21.0046 94.1758 21.0046C92.4349 21.0046 91.0237 22.3442 91.0237 23.9967C91.0237 25.6492 92.4349 26.9888 94.1758 26.9888Z" fill="#6371DD"/>
<path d="M122.066 26.9888C123.807 26.9888 125.219 25.6492 125.219 23.9967C125.219 22.3442 123.807 21.0046 122.066 21.0046C120.326 21.0046 118.914 22.3442 118.914 23.9967C118.914 25.6492 120.326 26.9888 122.066 26.9888Z" fill="#6371DD"/>
<path d="M149.958 26.9888C151.698 26.9888 153.11 25.6492 153.11 23.9967C153.11 22.3442 151.698 21.0046 149.958 21.0046C148.217 21.0046 146.805 22.3442 146.805 23.9967C146.805 25.6492 148.217 26.9888 149.958 26.9888Z" fill="#6371DD"/>
<path d="M94.1758 68.9043C95.9167 68.9043 97.328 67.5647 97.328 65.9123C97.328 64.2598 95.9167 62.9202 94.1758 62.9202C92.4349 62.9202 91.0237 64.2598 91.0237 65.9123C91.0237 67.5647 92.4349 68.9043 94.1758 68.9043Z" fill="#6371DD"/>
<path d="M122.066 68.9043C123.807 68.9043 125.219 67.5647 125.219 65.9123C125.219 64.2598 123.807 62.9202 122.066 62.9202C120.326 62.9202 118.914 64.2598 118.914 65.9123C118.914 67.5647 120.326 68.9043 122.066 68.9043Z" fill="#6371DD"/>
<path d="M149.958 68.9043C151.698 68.9043 153.11 67.5647 153.11 65.9123C153.11 64.2598 151.698 62.9202 149.958 62.9202C148.217 62.9202 146.805 64.2598 146.805 65.9123C146.805 67.5647 148.217 68.9043 149.958 68.9043Z" fill="#6371DD"/>
<path d="M94.1758 110.847C95.9167 110.847 97.328 109.508 97.328 107.855C97.328 106.203 95.9167 104.863 94.1758 104.863C92.4349 104.863 91.0237 106.203 91.0237 107.855C91.0237 109.508 92.4349 110.847 94.1758 110.847Z" fill="#6371DD"/>
<path d="M122.066 110.847C123.807 110.847 125.219 109.508 125.219 107.855C125.219 106.203 123.807 104.863 122.066 104.863C120.326 104.863 118.914 106.203 118.914 107.855C118.914 109.508 120.326 110.847 122.066 110.847Z" fill="#6371DD"/>
<path d="M149.958 110.847C151.698 110.847 153.11 109.508 153.11 107.855C153.11 106.203 151.698 104.863 149.958 104.863C148.217 104.863 146.805 106.203 146.805 107.855C146.805 109.508 148.217 110.847 149.958 110.847Z" fill="#6371DD"/>
<path d="M94.1758 152.79C95.9167 152.79 97.328 151.45 97.328 149.797C97.328 148.145 95.9167 146.805 94.1758 146.805C92.4349 146.805 91.0237 148.145 91.0237 149.797C91.0237 151.45 92.4349 152.79 94.1758 152.79Z" fill="#6371DD"/>
<path d="M122.066 152.79C123.807 152.79 125.219 151.45 125.219 149.797C125.219 148.145 123.807 146.805 122.066 146.805C120.326 146.805 118.914 148.145 118.914 149.797C118.914 151.45 120.326 152.79 122.066 152.79Z" fill="#6371DD"/>
<path d="M149.958 152.79C151.698 152.79 153.11 151.45 153.11 149.797C153.11 148.145 151.698 146.805 149.958 146.805C148.217 146.805 146.805 148.145 146.805 149.797C146.805 151.45 148.217 152.79 149.958 152.79Z" fill="#6371DD"/>
</g>
</svg>
