<svg width="133" height="319" viewBox="0 0 133 319" fill="none" xmlns="http://www.w3.org/2000/svg">
<g opacity="0.26">
<path d="M4.65561 8.83844C7.22683 8.83844 9.31121 6.85989 9.31121 4.41922C9.31121 1.97855 7.22683 0 4.65561 0C2.08439 0 0 1.97855 0 4.41922C0 6.85989 2.08439 8.83844 4.65561 8.83844Z" fill="#4E4E62"/>
<path d="M45.8495 8.83844C48.4207 8.83844 50.5051 6.85989 50.5051 4.41922C50.5051 1.97855 48.4207 0 45.8495 0C43.2782 0 41.1938 1.97855 41.1938 4.41922C41.1938 6.85989 43.2782 8.83844 45.8495 8.83844Z" fill="#4E4E62"/>
<path d="M87.0433 8.83844C89.6145 8.83844 91.6989 6.85989 91.6989 4.41922C91.6989 1.97855 89.6145 0 87.0433 0C84.4721 0 82.3877 1.97855 82.3877 4.41922C82.3877 6.85989 84.4721 8.83844 87.0433 8.83844Z" fill="#4E4E62"/>
<path d="M128.237 8.83844C130.808 8.83844 132.893 6.85989 132.893 4.41922C132.893 1.97855 130.808 0 128.237 0C125.666 0 123.581 1.97855 123.581 4.41922C123.581 6.85989 125.666 8.83844 128.237 8.83844Z" fill="#4E4E62"/>
<path d="M4.65561 70.7864C7.22683 70.7864 9.31121 68.8079 9.31121 66.3672C9.31121 63.9266 7.22683 61.948 4.65561 61.948C2.08439 61.948 0 63.9266 0 66.3672C0 68.8079 2.08439 70.7864 4.65561 70.7864Z" fill="#4E4E62"/>
<path d="M45.8495 70.7864C48.4207 70.7864 50.5051 68.8079 50.5051 66.3672C50.5051 63.9266 48.4207 61.948 45.8495 61.948C43.2782 61.948 41.1938 63.9266 41.1938 66.3672C41.1938 68.8079 43.2782 70.7864 45.8495 70.7864Z" fill="#4E4E62"/>
<path d="M87.0433 70.7864C89.6145 70.7864 91.6989 68.8079 91.6989 66.3672C91.6989 63.9266 89.6145 61.948 87.0433 61.948C84.4721 61.948 82.3877 63.9266 82.3877 66.3672C82.3877 68.8079 84.4721 70.7864 87.0433 70.7864Z" fill="#4E4E62"/>
<path d="M128.237 70.7864C130.808 70.7864 132.893 68.8079 132.893 66.3672C132.893 63.9266 130.808 61.948 128.237 61.948C125.666 61.948 123.581 63.9266 123.581 66.3672C123.581 68.8079 125.666 70.7864 128.237 70.7864Z" fill="#4E4E62"/>
<path d="M4.65561 132.695C7.22683 132.695 9.31121 130.716 9.31121 128.276C9.31121 125.835 7.22683 123.857 4.65561 123.857C2.08439 123.857 0 125.835 0 128.276C0 130.716 2.08439 132.695 4.65561 132.695Z" fill="#4E4E62"/>
<path d="M45.8495 132.695C48.4207 132.695 50.5051 130.716 50.5051 128.276C50.5051 125.835 48.4207 123.857 45.8495 123.857C43.2782 123.857 41.1938 125.835 41.1938 128.276C41.1938 130.716 43.2782 132.695 45.8495 132.695Z" fill="#4E4E62"/>
<path d="M87.0433 132.695C89.6145 132.695 91.6989 130.716 91.6989 128.276C91.6989 125.835 89.6145 123.857 87.0433 123.857C84.4721 123.857 82.3877 125.835 82.3877 128.276C82.3877 130.716 84.4721 132.695 87.0433 132.695Z" fill="#4E4E62"/>
<path d="M128.237 132.695C130.808 132.695 132.893 130.716 132.893 128.276C132.893 125.835 130.808 123.857 128.237 123.857C125.666 123.857 123.581 125.835 123.581 128.276C123.581 130.716 125.666 132.695 128.237 132.695Z" fill="#4E4E62"/>
<path d="M4.65561 194.643C7.22683 194.643 9.31121 192.664 9.31121 190.224C9.31121 187.783 7.22683 185.805 4.65561 185.805C2.08439 185.805 0 187.783 0 190.224C0 192.664 2.08439 194.643 4.65561 194.643Z" fill="#4E4E62"/>
<path d="M45.8495 194.643C48.4207 194.643 50.5051 192.664 50.5051 190.224C50.5051 187.783 48.4207 185.805 45.8495 185.805C43.2782 185.805 41.1938 187.783 41.1938 190.224C41.1938 192.664 43.2782 194.643 45.8495 194.643Z" fill="#4E4E62"/>
<path d="M87.0433 194.643C89.6145 194.643 91.6989 192.664 91.6989 190.224C91.6989 187.783 89.6145 185.805 87.0433 185.805C84.4721 185.805 82.3877 187.783 82.3877 190.224C82.3877 192.664 84.4721 194.643 87.0433 194.643Z" fill="#4E4E62"/>
<path d="M128.237 194.643C130.808 194.643 132.893 192.664 132.893 190.224C132.893 187.783 130.808 185.805 128.237 185.805C125.666 185.805 123.581 187.783 123.581 190.224C123.581 192.664 125.666 194.643 128.237 194.643Z" fill="#4E4E62"/>
<path d="M4.65561 256.591C7.22683 256.591 9.31121 254.612 9.31121 252.172C9.31121 249.731 7.22683 247.753 4.65561 247.753C2.08439 247.753 0 249.731 0 252.172C0 254.612 2.08439 256.591 4.65561 256.591Z" fill="#4E4E62"/>
<path d="M45.8495 256.591C48.4207 256.591 50.5051 254.612 50.5051 252.172C50.5051 249.731 48.4207 247.753 45.8495 247.753C43.2782 247.753 41.1938 249.731 41.1938 252.172C41.1938 254.612 43.2782 256.591 45.8495 256.591Z" fill="#4E4E62"/>
<path d="M87.0433 256.591C89.6145 256.591 91.6989 254.612 91.6989 252.172C91.6989 249.731 89.6145 247.753 87.0433 247.753C84.4721 247.753 82.3877 249.731 82.3877 252.172C82.3877 254.612 84.4721 256.591 87.0433 256.591Z" fill="#4E4E62"/>
<path d="M128.237 256.591C130.808 256.591 132.893 254.612 132.893 252.172C132.893 249.731 130.808 247.753 128.237 247.753C125.666 247.753 123.581 249.731 123.581 252.172C123.581 254.612 125.666 256.591 128.237 256.591Z" fill="#4E4E62"/>
<path d="M4.65561 318.5C7.22683 318.5 9.31121 316.521 9.31121 314.08C9.31121 311.64 7.22683 309.661 4.65561 309.661C2.08439 309.661 0 311.64 0 314.08C0 316.521 2.08439 318.5 4.65561 318.5Z" fill="#4E4E62"/>
<path d="M45.8495 318.5C48.4207 318.5 50.5051 316.521 50.5051 314.08C50.5051 311.64 48.4207 309.661 45.8495 309.661C43.2782 309.661 41.1938 311.64 41.1938 314.08C41.1938 316.521 43.2782 318.5 45.8495 318.5Z" fill="#4E4E62"/>
<path d="M87.0433 318.5C89.6145 318.5 91.6989 316.521 91.6989 314.08C91.6989 311.64 89.6145 309.661 87.0433 309.661C84.4721 309.661 82.3877 311.64 82.3877 314.08C82.3877 316.521 84.4721 318.5 87.0433 318.5Z" fill="#4E4E62"/>
<path d="M128.237 318.5C130.808 318.5 132.893 316.521 132.893 314.08C132.893 311.64 130.808 309.661 128.237 309.661C125.666 309.661 123.581 311.64 123.581 314.08C123.581 316.521 125.666 318.5 128.237 318.5Z" fill="#4E4E62"/>
</g>
</svg>
