<svg width="199" height="214" viewBox="0 0 199 214" fill="none" xmlns="http://www.w3.org/2000/svg">
<path d="M3.12477 5.93222C4.85053 5.93222 6.24954 4.60425 6.24954 2.96611C6.24954 1.32797 4.85053 0 3.12477 0C1.39901 0 0 1.32797 0 2.96611C0 4.60425 1.39901 5.93222 3.12477 5.93222Z" fill="#FF7E61"/>
<path d="M30.7732 5.93222C32.499 5.93222 33.898 4.60425 33.898 2.96611C33.898 1.32797 32.499 0 30.7732 0C29.0474 0 27.6484 1.32797 27.6484 2.96611C27.6484 4.60425 29.0474 5.93222 30.7732 5.93222Z" fill="#FF7E61"/>
<path d="M58.4221 5.93222C60.1479 5.93222 61.5469 4.60425 61.5469 2.96611C61.5469 1.32797 60.1479 0 58.4221 0C56.6964 0 55.2974 1.32797 55.2974 2.96611C55.2974 4.60425 56.6964 5.93222 58.4221 5.93222Z" fill="#FF7E61"/>
<path d="M86.0706 5.93222C87.7963 5.93222 89.1953 4.60425 89.1953 2.96611C89.1953 1.32797 87.7963 0 86.0706 0C84.3448 0 82.9458 1.32797 82.9458 2.96611C82.9458 4.60425 84.3448 5.93222 86.0706 5.93222Z" fill="#FF7E61"/>
<path d="M3.12477 47.5106C4.85053 47.5106 6.24954 46.1826 6.24954 44.5445C6.24954 42.9063 4.85053 41.5784 3.12477 41.5784C1.39901 41.5784 0 42.9063 0 44.5445C0 46.1826 1.39901 47.5106 3.12477 47.5106Z" fill="#FF7E61"/>
<path d="M30.7732 47.5106C32.499 47.5106 33.898 46.1826 33.898 44.5445C33.898 42.9063 32.499 41.5784 30.7732 41.5784C29.0474 41.5784 27.6484 42.9063 27.6484 44.5445C27.6484 46.1826 29.0474 47.5106 30.7732 47.5106Z" fill="#FF7E61"/>
<path d="M58.4221 47.5106C60.1479 47.5106 61.5469 46.1826 61.5469 44.5445C61.5469 42.9063 60.1479 41.5784 58.4221 41.5784C56.6964 41.5784 55.2974 42.9063 55.2974 44.5445C55.2974 46.1826 56.6964 47.5106 58.4221 47.5106Z" fill="#FF7E61"/>
<path d="M86.0706 47.5106C87.7963 47.5106 89.1953 46.1826 89.1953 44.5445C89.1953 42.9063 87.7963 41.5784 86.0706 41.5784C84.3448 41.5784 82.9458 42.9063 82.9458 44.5445C82.9458 46.1826 84.3448 47.5106 86.0706 47.5106Z" fill="#FF7E61"/>
<path d="M3.12477 89.0623C4.85053 89.0623 6.24954 87.7344 6.24954 86.0962C6.24954 84.4581 4.85053 83.1301 3.12477 83.1301C1.39901 83.1301 0 84.4581 0 86.0962C0 87.7344 1.39901 89.0623 3.12477 89.0623Z" fill="#FF7E61"/>
<path d="M30.7732 89.0623C32.499 89.0623 33.898 87.7344 33.898 86.0962C33.898 84.4581 32.499 83.1301 30.7732 83.1301C29.0474 83.1301 27.6484 84.4581 27.6484 86.0962C27.6484 87.7344 29.0474 89.0623 30.7732 89.0623Z" fill="#FF7E61"/>
<path d="M58.4221 89.0623C60.1479 89.0623 61.5469 87.7344 61.5469 86.0962C61.5469 84.4581 60.1479 83.1301 58.4221 83.1301C56.6964 83.1301 55.2974 84.4581 55.2974 86.0962C55.2974 87.7344 56.6964 89.0623 58.4221 89.0623Z" fill="#FF7E61"/>
<path d="M86.0706 89.0623C87.7963 89.0623 89.1953 87.7344 89.1953 86.0962C89.1953 84.4581 87.7963 83.1301 86.0706 83.1301C84.3448 83.1301 82.9458 84.4581 82.9458 86.0962C82.9458 87.7344 84.3448 89.0623 86.0706 89.0623Z" fill="#FF7E61"/>
<path d="M3.12477 130.641C4.85053 130.641 6.24954 129.313 6.24954 127.675C6.24954 126.037 4.85053 124.709 3.12477 124.709C1.39901 124.709 0 126.037 0 127.675C0 129.313 1.39901 130.641 3.12477 130.641Z" fill="#FF7E61"/>
<path d="M30.7732 130.641C32.499 130.641 33.898 129.313 33.898 127.675C33.898 126.037 32.499 124.709 30.7732 124.709C29.0474 124.709 27.6484 126.037 27.6484 127.675C27.6484 129.313 29.0474 130.641 30.7732 130.641Z" fill="#FF7E61"/>
<path d="M58.4221 130.641C60.1479 130.641 61.5469 129.313 61.5469 127.675C61.5469 126.037 60.1479 124.709 58.4221 124.709C56.6964 124.709 55.2974 126.037 55.2974 127.675C55.2974 129.313 56.6964 130.641 58.4221 130.641Z" fill="#FF7E61"/>
<path d="M86.0706 130.641C87.7963 130.641 89.1953 129.313 89.1953 127.675C89.1953 126.037 87.7963 124.709 86.0706 124.709C84.3448 124.709 82.9458 126.037 82.9458 127.675C82.9458 129.313 84.3448 130.641 86.0706 130.641Z" fill="#FF7E61"/>
<path d="M3.12477 172.22C4.85053 172.22 6.24954 170.892 6.24954 169.253C6.24954 167.615 4.85053 166.287 3.12477 166.287C1.39901 166.287 0 167.615 0 169.253C0 170.892 1.39901 172.22 3.12477 172.22Z" fill="#FF7E61"/>
<path d="M30.7732 172.22C32.499 172.22 33.898 170.892 33.898 169.253C33.898 167.615 32.499 166.287 30.7732 166.287C29.0474 166.287 27.6484 167.615 27.6484 169.253C27.6484 170.892 29.0474 172.22 30.7732 172.22Z" fill="#FF7E61"/>
<path d="M58.4221 172.22C60.1479 172.22 61.5469 170.892 61.5469 169.253C61.5469 167.615 60.1479 166.287 58.4221 166.287C56.6964 166.287 55.2974 167.615 55.2974 169.253C55.2974 170.892 56.6964 172.22 58.4221 172.22Z" fill="#FF7E61"/>
<path d="M86.0706 172.22C87.7963 172.22 89.1953 170.892 89.1953 169.253C89.1953 167.615 87.7963 166.287 86.0706 166.287C84.3448 166.287 82.9458 167.615 82.9458 169.253C82.9458 170.892 84.3448 172.22 86.0706 172.22Z" fill="#FF7E61"/>
<path d="M3.12477 213.772C4.85053 213.772 6.24954 212.444 6.24954 210.806C6.24954 209.168 4.85053 207.84 3.12477 207.84C1.39901 207.84 0 209.168 0 210.806C0 212.444 1.39901 213.772 3.12477 213.772Z" fill="#FF7E61"/>
<path d="M30.7732 213.772C32.499 213.772 33.898 212.444 33.898 210.806C33.898 209.168 32.499 207.84 30.7732 207.84C29.0474 207.84 27.6484 209.168 27.6484 210.806C27.6484 212.444 29.0474 213.772 30.7732 213.772Z" fill="#FF7E61"/>
<path d="M58.4221 213.772C60.1479 213.772 61.5469 212.444 61.5469 210.806C61.5469 209.168 60.1479 207.84 58.4221 207.84C56.6964 207.84 55.2974 209.168 55.2974 210.806C55.2974 212.444 56.6964 213.772 58.4221 213.772Z" fill="#FF7E61"/>
<path d="M86.0706 213.772C87.7963 213.772 89.1953 212.444 89.1953 210.806C89.1953 209.168 87.7963 207.84 86.0706 207.84C84.3448 207.84 82.9458 209.168 82.9458 210.806C82.9458 212.444 84.3448 213.772 86.0706 213.772Z" fill="#FF7E61"/>
<path d="M112.421 5.93247C114.147 5.93247 115.546 4.60449 115.546 2.96636C115.546 1.32822 114.147 0.000244141 112.421 0.000244141C110.695 0.000244141 109.296 1.32822 109.296 2.96636C109.296 4.60449 110.695 5.93247 112.421 5.93247Z" fill="#FF7E61"/>
<path d="M140.069 5.93222C141.795 5.93222 143.194 4.60425 143.194 2.96611C143.194 1.32797 141.795 0 140.069 0C138.343 0 136.944 1.32797 136.944 2.96611C136.944 4.60425 138.343 5.93222 140.069 5.93222Z" fill="#FF7E61"/>
<path d="M167.718 5.93222C169.444 5.93222 170.843 4.60425 170.843 2.96611C170.843 1.32797 169.444 0 167.718 0C165.992 0 164.593 1.32797 164.593 2.96611C164.593 4.60425 165.992 5.93222 167.718 5.93222Z" fill="#FF7E61"/>
<path d="M195.366 5.93222C197.092 5.93222 198.491 4.60425 198.491 2.96611C198.491 1.32797 197.092 0 195.366 0C193.64 0 192.241 1.32797 192.241 2.96611C192.241 4.60425 193.64 5.93222 195.366 5.93222Z" fill="#FF7E61"/>
<path d="M112.42 47.5106C114.146 47.5106 115.545 46.1826 115.545 44.5445C115.545 42.9063 114.146 41.5784 112.42 41.5784C110.695 41.5784 109.296 42.9063 109.296 44.5445C109.296 46.1826 110.695 47.5106 112.42 47.5106Z" fill="#FF7E61"/>
<path d="M140.069 47.5106C141.795 47.5106 143.194 46.1826 143.194 44.5445C143.194 42.9063 141.795 41.5784 140.069 41.5784C138.343 41.5784 136.944 42.9063 136.944 44.5445C136.944 46.1826 138.343 47.5106 140.069 47.5106Z" fill="#FF7E61"/>
<path d="M167.718 47.5106C169.444 47.5106 170.843 46.1826 170.843 44.5445C170.843 42.9063 169.444 41.5784 167.718 41.5784C165.992 41.5784 164.593 42.9063 164.593 44.5445C164.593 46.1826 165.992 47.5106 167.718 47.5106Z" fill="#FF7E61"/>
<path d="M195.366 47.5106C197.092 47.5106 198.491 46.1826 198.491 44.5445C198.491 42.9063 197.092 41.5784 195.366 41.5784C193.64 41.5784 192.241 42.9063 192.241 44.5445C192.241 46.1826 193.64 47.5106 195.366 47.5106Z" fill="#FF7E61"/>
<path d="M112.42 89.0623C114.146 89.0623 115.545 87.7344 115.545 86.0962C115.545 84.4581 114.146 83.1301 112.42 83.1301C110.695 83.1301 109.296 84.4581 109.296 86.0962C109.296 87.7344 110.695 89.0623 112.42 89.0623Z" fill="#FF7E61"/>
<path d="M140.069 89.0623C141.795 89.0623 143.194 87.7344 143.194 86.0962C143.194 84.4581 141.795 83.1301 140.069 83.1301C138.343 83.1301 136.944 84.4581 136.944 86.0962C136.944 87.7344 138.343 89.0623 140.069 89.0623Z" fill="#FF7E61"/>
<path d="M167.718 89.0623C169.444 89.0623 170.843 87.7344 170.843 86.0962C170.843 84.4581 169.444 83.1301 167.718 83.1301C165.992 83.1301 164.593 84.4581 164.593 86.0962C164.593 87.7344 165.992 89.0623 167.718 89.0623Z" fill="#FF7E61"/>
<path d="M195.366 89.0623C197.092 89.0623 198.491 87.7344 198.491 86.0962C198.491 84.4581 197.092 83.1301 195.366 83.1301C193.64 83.1301 192.241 84.4581 192.241 86.0962C192.241 87.7344 193.64 89.0623 195.366 89.0623Z" fill="#FF7E61"/>
<path d="M112.42 130.641C114.146 130.641 115.545 129.313 115.545 127.675C115.545 126.037 114.146 124.709 112.42 124.709C110.695 124.709 109.296 126.037 109.296 127.675C109.296 129.313 110.695 130.641 112.42 130.641Z" fill="#FF7E61"/>
<path d="M140.069 130.641C141.795 130.641 143.194 129.313 143.194 127.675C143.194 126.037 141.795 124.709 140.069 124.709C138.343 124.709 136.944 126.037 136.944 127.675C136.944 129.313 138.343 130.641 140.069 130.641Z" fill="#FF7E61"/>
<path d="M167.718 130.641C169.444 130.641 170.843 129.313 170.843 127.675C170.843 126.037 169.444 124.709 167.718 124.709C165.992 124.709 164.593 126.037 164.593 127.675C164.593 129.313 165.992 130.641 167.718 130.641Z" fill="#FF7E61"/>
<path d="M195.366 130.641C197.092 130.641 198.491 129.313 198.491 127.675C198.491 126.037 197.092 124.709 195.366 124.709C193.64 124.709 192.241 126.037 192.241 127.675C192.241 129.313 193.64 130.641 195.366 130.641Z" fill="#FF7E61"/>
<path d="M112.42 172.22C114.146 172.22 115.545 170.892 115.545 169.253C115.545 167.615 114.146 166.287 112.42 166.287C110.695 166.287 109.296 167.615 109.296 169.253C109.296 170.892 110.695 172.22 112.42 172.22Z" fill="#FF7E61"/>
<path d="M140.069 172.22C141.795 172.22 143.194 170.892 143.194 169.253C143.194 167.615 141.795 166.287 140.069 166.287C138.343 166.287 136.944 167.615 136.944 169.253C136.944 170.892 138.343 172.22 140.069 172.22Z" fill="#FF7E61"/>
<path d="M167.718 172.22C169.444 172.22 170.843 170.892 170.843 169.253C170.843 167.615 169.444 166.287 167.718 166.287C165.992 166.287 164.593 167.615 164.593 169.253C164.593 170.892 165.992 172.22 167.718 172.22Z" fill="#FF7E61"/>
<path d="M195.366 172.22C197.092 172.22 198.491 170.892 198.491 169.253C198.491 167.615 197.092 166.287 195.366 166.287C193.64 166.287 192.241 167.615 192.241 169.253C192.241 170.892 193.64 172.22 195.366 172.22Z" fill="#FF7E61"/>
<path d="M112.42 213.772C114.146 213.772 115.545 212.444 115.545 210.806C115.545 209.168 114.146 207.84 112.42 207.84C110.695 207.84 109.296 209.168 109.296 210.806C109.296 212.444 110.695 213.772 112.42 213.772Z" fill="#FF7E61"/>
<path d="M140.069 213.772C141.795 213.772 143.194 212.444 143.194 210.806C143.194 209.168 141.795 207.84 140.069 207.84C138.343 207.84 136.944 209.168 136.944 210.806C136.944 212.444 138.343 213.772 140.069 213.772Z" fill="#FF7E61"/>
<path d="M167.718 213.772C169.444 213.772 170.843 212.444 170.843 210.806C170.843 209.168 169.444 207.84 167.718 207.84C165.992 207.84 164.593 209.168 164.593 210.806C164.593 212.444 165.992 213.772 167.718 213.772Z" fill="#FF7E61"/>
<path d="M195.366 213.772C197.092 213.772 198.491 212.444 198.491 210.806C198.491 209.168 197.092 207.84 195.366 207.84C193.64 207.84 192.241 209.168 192.241 210.806C192.241 212.444 193.64 213.772 195.366 213.772Z" fill="#FF7E61"/>
</svg>
